# MagicaVoxel @ Ephtracy

# group
g chr_player

# material
mtllib chr_player.mtl
usemtl palette

# normals
vn -1 0 0
vn 1 0 0
vn 0 0 1
vn 0 0 -1
vn 0 -1 0
vn 0 1 0

# texcoords
vt 0.00195313 0.5
vt 0.0332031 0.5
vt 0.0605469 0.5
vt 0.142578 0.5
vt 0.521484 0.5
vt 0.587891 0.5
vt 0.611328 0.5
vt 0.634766 0.5
vt 0.646484 0.5
vt 0.970703 0.5
vt 0.994141 0.5

# verts
v -6 5 0.5
v -6 5 -0.5
v -6 6 0.5
v -6 6 -0.5
v -3 1 2.5
v -3 1 -2.5
v -3 5 0.5
v -3 5 -0.5
v -3 6 0.5
v -3 6 -0.5
v -3 7 2.5
v -3 7 -2.5
v -3 12 2.5
v -3 12 -2.5
v -2 0 0.5
v -2 0 -0.5
v -2 1 0.5
v -2 1 -0.5
v -2 12 1.5
v -2 12 -1.5
v -2 13 1.5
v -2 13 -1.5
v 1 0 0.5
v 1 0 -0.5
v 1 1 0.5
v 1 1 -0.5
v -1 0 0.5
v -1 0 -0.5
v -1 1 0.5
v -1 1 -0.5
v 2 0 0.5
v 2 0 -0.5
v 2 1 0.5
v 2 1 -0.5
v 2 12 1.5
v 2 12 -1.5
v 2 13 1.5
v 2 13 -1.5
v 3 1 2.5
v 3 1 -2.5
v 3 5 0.5
v 3 5 -0.5
v 3 6 0.5
v 3 6 -0.5
v 3 7 2.5
v 3 7 -2.5
v 3 12 2.5
v 3 12 -2.5
v 6 5 0.5
v 6 5 -0.5
v 6 6 0.5
v 6 6 -0.5
v -3 1 2.5
v -3 7 2.5
v -3 12 2.5
v -2 8 2.5
v -2 9 2.5
v -2 10 2.5
v -1 6 2.5
v -1 7 2.5
v -1 8 2.5
v -1 9 2.5
v -1 10 2.5
v 1 6 2.5
v 1 7 2.5
v 1 8 2.5
v 1 9 2.5
v 1 10 2.5
v 2 8 2.5
v 2 9 2.5
v 2 10 2.5
v 3 1 2.5
v 3 7 2.5
v 3 12 2.5
v -2 12 1.5
v -2 13 1.5
v 2 12 1.5
v 2 13 1.5
v -6 5 0.5
v -6 6 0.5
v -5 5 0.5
v -5 6 0.5
v -3 5 0.5
v -3 6 0.5
v -2 0 0.5
v -2 1 0.5
v -1 0 0.5
v -1 1 0.5
v 1 0 0.5
v 1 1 0.5
v 2 0 0.5
v 2 1 0.5
v 3 5 0.5
v 3 6 0.5
v 5 5 0.5
v 5 6 0.5
v 6 5 0.5
v 6 6 0.5
v -6 5 -0.5
v -6 6 -0.5
v -5 5 -0.5
v -5 6 -0.5
v -3 5 -0.5
v -3 6 -0.5
v -2 0 -0.5
v -2 1 -0.5
v -1 0 -0.5
v -1 1 -0.5
v 1 0 -0.5
v 1 1 -0.5
v 2 0 -0.5
v 2 1 -0.5
v 3 5 -0.5
v 3 6 -0.5
v 5 5 -0.5
v 5 6 -0.5
v 6 5 -0.5
v 6 6 -0.5
v -2 12 -1.5
v -2 13 -1.5
v 2 12 -1.5
v 2 13 -1.5
v -3 1 -2.5
v -3 7 -2.5
v -3 12 -2.5
v 3 1 -2.5
v 3 7 -2.5
v 3 12 -2.5
v -2 0 0.5
v -1 0 0.5
v 1 0 0.5
v 2 0 0.5
v -2 0 -0.5
v -1 0 -0.5
v 1 0 -0.5
v 2 0 -0.5
v -3 1 2.5
v 3 1 2.5
v -2 1 0.5
v -1 1 0.5
v 1 1 0.5
v 2 1 0.5
v -2 1 -0.5
v -1 1 -0.5
v 1 1 -0.5
v 2 1 -0.5
v -3 1 -2.5
v 3 1 -2.5
v -6 5 0.5
v -5 5 0.5
v -3 5 0.5
v 3 5 0.5
v 5 5 0.5
v 6 5 0.5
v -6 5 -0.5
v -5 5 -0.5
v -3 5 -0.5
v 3 5 -0.5
v 5 5 -0.5
v 6 5 -0.5
v -6 6 0.5
v -5 6 0.5
v -3 6 0.5
v 3 6 0.5
v 5 6 0.5
v 6 6 0.5
v -6 6 -0.5
v -5 6 -0.5
v -3 6 -0.5
v 3 6 -0.5
v 5 6 -0.5
v 6 6 -0.5
v -3 12 2.5
v 3 12 2.5
v -2 12 1.5
v 2 12 1.5
v -2 12 -1.5
v 2 12 -1.5
v -3 12 -2.5
v 3 12 -2.5
v -2 13 1.5
v 2 13 1.5
v -2 13 -1.5
v 2 13 -1.5

# faces
f 3/2/1 2/2/1 1/2/1
f 4/2/1 2/2/1 3/2/1
f 7/10/1 6/10/1 5/10/1
f 8/10/1 6/10/1 7/10/1
f 9/10/1 7/10/1 5/10/1
f 10/10/1 6/10/1 8/10/1
f 11/10/1 9/10/1 5/10/1
f 11/10/1 10/10/1 9/10/1
f 12/10/1 6/10/1 10/10/1
f 12/10/1 10/10/1 11/10/1
f 13/2/1 12/2/1 11/2/1
f 14/2/1 12/2/1 13/2/1
f 17/11/1 16/11/1 15/11/1
f 18/11/1 16/11/1 17/11/1
f 21/2/1 20/2/1 19/2/1
f 22/2/1 20/2/1 21/2/1
f 25/11/1 24/11/1 23/11/1
f 26/11/1 24/11/1 25/11/1
f 27/11/2 28/11/2 29/11/2
f 29/11/2 28/11/2 30/11/2
f 31/11/2 32/11/2 33/11/2
f 33/11/2 32/11/2 34/11/2
f 35/2/2 36/2/2 37/2/2
f 37/2/2 36/2/2 38/2/2
f 39/10/2 40/10/2 41/10/2
f 41/10/2 40/10/2 42/10/2
f 39/10/2 41/10/2 43/10/2
f 42/10/2 40/10/2 44/10/2
f 39/10/2 43/10/2 45/10/2
f 43/10/2 44/10/2 45/10/2
f 44/10/2 40/10/2 46/10/2
f 45/10/2 44/10/2 46/10/2
f 45/2/2 46/2/2 47/2/2
f 47/2/2 46/2/2 48/2/2
f 49/2/2 50/2/2 51/2/2
f 51/2/2 50/2/2 52/2/2
f 56/2/3 55/2/3 54/2/3
f 57/2/3 55/2/3 56/2/3
f 58/2/3 55/2/3 57/2/3
f 59/10/3 54/10/3 53/10/3
f 60/2/3 56/2/3 54/2/3
f 60/10/3 54/10/3 59/10/3
f 61/11/3 57/11/3 56/11/3
f 61/2/3 56/2/3 60/2/3
f 62/6/3 58/6/3 57/6/3
f 62/11/3 57/11/3 61/11/3
f 63/2/3 55/2/3 58/2/3
f 63/6/3 58/6/3 62/6/3
f 64/2/3 62/2/3 61/2/3
f 64/10/3 59/10/3 53/10/3
f 64/2/3 63/2/3 62/2/3
f 64/2/3 61/2/3 60/2/3
f 64/2/3 60/2/3 59/2/3
f 65/2/3 63/2/3 64/2/3
f 66/2/3 63/2/3 65/2/3
f 67/2/3 63/2/3 66/2/3
f 68/2/3 55/2/3 63/2/3
f 68/2/3 63/2/3 67/2/3
f 69/11/3 67/11/3 66/11/3
f 69/2/3 66/2/3 65/2/3
f 70/6/3 68/6/3 67/6/3
f 70/11/3 67/11/3 69/11/3
f 71/2/3 55/2/3 68/2/3
f 71/6/3 68/6/3 70/6/3
f 72/10/3 64/10/3 53/10/3
f 72/10/3 65/10/3 64/10/3
f 73/2/3 70/2/3 69/2/3
f 73/10/3 65/10/3 72/10/3
f 73/2/3 71/2/3 70/2/3
f 73/2/3 69/2/3 65/2/3
f 74/2/3 55/2/3 71/2/3
f 74/2/3 71/2/3 73/2/3
f 77/2/3 76/2/3 75/2/3
f 78/2/3 76/2/3 77/2/3
f 81/2/3 80/2/3 79/2/3
f 82/2/3 80/2/3 81/2/3
f 83/10/3 82/10/3 81/10/3
f 84/10/3 82/10/3 83/10/3
f 87/11/3 86/11/3 85/11/3
f 88/11/3 86/11/3 87/11/3
f 91/11/3 90/11/3 89/11/3
f 92/11/3 90/11/3 91/11/3
f 95/10/3 94/10/3 93/10/3
f 96/10/3 94/10/3 95/10/3
f 97/2/3 96/2/3 95/2/3
f 98/2/3 96/2/3 97/2/3
f 99/2/4 100/2/4 101/2/4
f 101/2/4 100/2/4 102/2/4
f 101/10/4 102/10/4 103/10/4
f 103/10/4 102/10/4 104/10/4
f 105/11/4 106/11/4 107/11/4
f 107/11/4 106/11/4 108/11/4
f 109/11/4 110/11/4 111/11/4
f 111/11/4 110/11/4 112/11/4
f 113/10/4 114/10/4 115/10/4
f 115/10/4 114/10/4 116/10/4
f 115/2/4 116/2/4 117/2/4
f 117/2/4 116/2/4 118/2/4
f 119/2/4 120/2/4 121/2/4
f 121/2/4 120/2/4 122/2/4
f 123/10/4 124/10/4 126/10/4
f 124/2/4 125/2/4 127/2/4
f 126/10/4 124/10/4 127/10/4
f 127/2/4 125/2/4 128/2/4
f 133/11/5 130/11/5 129/11/5
f 134/11/5 130/11/5 133/11/5
f 135/11/5 132/11/5 131/11/5
f 136/11/5 132/11/5 135/11/5
f 139/10/5 138/10/5 137/10/5
f 140/10/5 138/10/5 139/10/5
f 141/10/5 138/10/5 140/10/5
f 142/10/5 138/10/5 141/10/5
f 143/10/5 139/10/5 137/10/5
f 144/10/5 141/10/5 140/10/5
f 145/10/5 141/10/5 144/10/5
f 146/10/5 138/10/5 142/10/5
f 147/10/5 145/10/5 144/10/5
f 147/10/5 146/10/5 145/10/5
f 147/10/5 143/10/5 137/10/5
f 147/10/5 144/10/5 143/10/5
f 148/10/5 138/10/5 146/10/5
f 148/10/5 146/10/5 147/10/5
f 155/2/5 150/2/5 149/2/5
f 156/10/5 151/10/5 150/10/5
f 156/2/5 150/2/5 155/2/5
f 157/10/5 151/10/5 156/10/5
f 158/10/5 153/10/5 152/10/5
f 159/2/5 154/2/5 153/2/5
f 159/10/5 153/10/5 158/10/5
f 160/2/5 154/2/5 159/2/5
f 161/2/6 162/2/6 167/2/6
f 162/10/6 163/10/6 168/10/6
f 167/2/6 162/2/6 168/2/6
f 168/10/6 163/10/6 169/10/6
f 164/10/6 165/10/6 170/10/6
f 165/2/6 166/2/6 171/2/6
f 170/10/6 165/10/6 171/10/6
f 171/2/6 166/2/6 172/2/6
f 173/2/6 174/2/6 175/2/6
f 175/2/6 174/2/6 176/2/6
f 173/2/6 175/2/6 177/2/6
f 176/2/6 174/2/6 178/2/6
f 173/2/6 177/2/6 179/2/6
f 177/2/6 178/2/6 179/2/6
f 178/2/6 174/2/6 180/2/6
f 179/2/6 178/2/6 180/2/6
f 181/2/6 182/2/6 183/2/6
f 183/2/6 182/2/6 184/2/6
